<svg
   viewBox="0 0 48 48"
   xmlns:rdf="http://www.w3.org/1999/02/22-rdf-syntax-ns#"
   version="1.1"
   id="svg3336"
   xmlns:xlink="http://www.w3.org/1999/xlink"
   xmlns:sodipodi="http://sodipodi.sourceforge.net/DTD/sodipodi-0.dtd"
   width="48"
   xmlns:dc="http://purl.org/dc/elements/1.1/"
   xmlns:inkscape="http://www.inkscape.org/namespaces/inkscape"
   xmlns:cc="http://creativecommons.org/ns#"
   inkscape:version="0.91 r13725"
   height="48"
   xmlns:svg="http://www.w3.org/2000/svg"
   xmlns="http://www.w3.org/2000/svg"
   sodipodi:docname="1D_FC_COIL_LB_BLUE.svg">
   <title
      id="title12183">COIL Icon Pack LB Blue v0.1</title>
   <defs
      id="defs3338">
      <pattern
         x="0"
         patternUnits="userSpaceOnUse"
         height="6"
         width="6"
         y="0"
         id="EMFhbasepattern"></pattern>
      <pattern
         x="0"
         patternUnits="userSpaceOnUse"
         height="6"
         width="6"
         y="0"
         id="EMFhbasepattern-8"></pattern>
      <pattern
         x="0"
         patternUnits="userSpaceOnUse"
         height="6"
         width="6"
         y="0"
         id="EMFhbasepattern-3"></pattern>
      <pattern
         x="0"
         patternUnits="userSpaceOnUse"
         height="6"
         width="6"
         y="0"
         id="EMFhbasepattern-6"></pattern>
      <pattern
         x="0"
         patternUnits="userSpaceOnUse"
         height="6"
         width="6"
         y="0"
         id="EMFhbasepattern-5"></pattern>
      <pattern
         x="0"
         patternUnits="userSpaceOnUse"
         height="6"
         width="6"
         y="0"
         id="EMFhbasepattern-9"></pattern>
      <pattern
         x="0"
         patternUnits="userSpaceOnUse"
         height="6"
         width="6"
         y="0"
         id="EMFhbasepattern-2"></pattern>
      <pattern
         x="0"
         patternUnits="userSpaceOnUse"
         height="6"
         width="6"
         y="0"
         id="EMFhbasepattern-7"></pattern>
      <pattern
         x="0"
         patternUnits="userSpaceOnUse"
         height="6"
         width="6"
         y="0"
         id="EMFhbasepattern-31"></pattern>
      <pattern
         x="0"
         patternUnits="userSpaceOnUse"
         height="6"
         width="6"
         y="0"
         id="EMFhbasepattern-79"></pattern>
      <pattern
         x="0"
         patternUnits="userSpaceOnUse"
         height="6"
         width="6"
         y="0"
         id="EMFhbasepattern-87"></pattern>
      <pattern
         x="0"
         patternUnits="userSpaceOnUse"
         height="6"
         width="6"
         y="0"
         id="EMFhbasepattern-94"></pattern></defs>
   <sodipodi:namedview
      showgrid="true"
      inkscape:snap-intersection-paths="true"
      id="base"
      inkscape:window-maximized="1"
      inkscape:current-layer="layer4"
      pagecolor="#f5f5f5"
      inkscape:object-paths="true"
      inkscape:cy="-442.3766"
      inkscape:snap-to-guides="false"
      inkscape:pageshadow="2"
      inkscape:snap-smooth-nodes="true"
      inkscape:snap-center="true"
      inkscape:window-height="1003"
      inkscape:window-width="1920"
      inkscape:snap-bbox="true"
      inkscape:zoom="0.125"
      inkscape:window-x="-9"
      inkscape:snap-global="true"
      inkscape:snap-grids="false"
      inkscape:object-nodes="true"
      inkscape:snap-object-midpoints="true"
      inkscape:document-units="px"
      inkscape:cx="-1014.2608"
      showguides="true"
      inkscape:window-y="-9"
      borderopacity="1.0"
      bordercolor="#666666"
      inkscape:grid-bbox="true"
      inkscape:pageopacity="1">
      <inkscape:grid
         empspacing="4"
         spacingy="6"
         opacity="0.09803922"
         empcolor="#3f3fff"
         empopacity="0.14901961"
         id="grid3344"
         color="#3f3fff"
         dotted="false"
         spacingx="6"
         type="xygrid"></inkscape:grid>
      <inkscape:grid
         empspacing="48"
         spacingy="1"
         empcolor="#0e3ca4"
         empopacity="0.19607843"
         id="grid3346"
         spacingx="1"
         type="xygrid"></inkscape:grid></sodipodi:namedview>
   <metadata
      id="metadata3341">
      <rdf:RDF>
         <cc:Work
            rdf:about="">
            <dc:format>image/svg+xml</dc:format>
            <dc:type
               rdf:resource="http://purl.org/dc/dcmitype/StillImage"></dc:type>
            <dc:title>COIL Icon Pack LB Blue v0.1</dc:title>
            <dc:creator>
               <cc:Agent>
                  <dc:title>Paul Kotelevets (1D_Inc)</dc:title></cc:Agent></dc:creator>
            <dc:rights>
               <cc:Agent>
                  <dc:title></dc:title></cc:Agent></dc:rights>
            <cc:license
               rdf:resource="http://creativecommons.org/licenses/by-sa/3.0/"></cc:license>
            <dc:identifier>Light theme</dc:identifier>
            <dc:description>FreeCAD Icons Pack Light Blue (background f5f5f5ff and lighter) 
5 colors 
black 373e48ff /grey 939dacff /blue 1d7bf0ff /green 00ada3ff /violet d35fbcff</dc:description>
            <dc:contributor>
               <cc:Agent>
                  <dc:title>based on Blender 2.8 style by Andrzej Ambroz (jendrzych), Monoicon style</dc:title></cc:Agent></dc:contributor>
            <dc:date>2019</dc:date>
            <dc:relation>https://github.com/triplus/IconThemes</dc:relation>
            <dc:coverage></dc:coverage>
            <dc:source>https://forum.freecadweb.org/viewtopic.php?f=34&amp;=34687</dc:source>
            <dc:publisher>
               <cc:Agent>
                  <dc:title>FreeCAD</dc:title></cc:Agent></dc:publisher>
            <dc:subject>
               <rdf:Bag>
                  <rdf:li>FreeCAD</rdf:li>
                  <rdf:li>COIL</rdf:li>
                  <rdf:li>Icon</rdf:li>
                  <rdf:li>Pack</rdf:li>
                  <rdf:li>Theme</rdf:li></rdf:Bag></dc:subject></cc:Work>
         <cc:License
            rdf:about="http://creativecommons.org/licenses/by-sa/3.0/">
            <cc:permits
               rdf:resource="http://creativecommons.org/ns#Reproduction"></cc:permits>
            <cc:permits
               rdf:resource="http://creativecommons.org/ns#Distribution"></cc:permits>
            <cc:requires
               rdf:resource="http://creativecommons.org/ns#Notice"></cc:requires>
            <cc:requires
               rdf:resource="http://creativecommons.org/ns#Attribution"></cc:requires>
            <cc:permits
               rdf:resource="http://creativecommons.org/ns#DerivativeWorks"></cc:permits>
            <cc:requires
               rdf:resource="http://creativecommons.org/ns#ShareAlike"></cc:requires></cc:License></rdf:RDF></metadata>
   <g
      inkscape:groupmode="layer"
      inkscape:label="icon"
      id="icon">
      <path
         sodipodi:nodetypes="cccccccccccccccccccccccccccccccccccccccccccccccccccccccccccccccccccccccccccc"
         d=" m 12.660199999999804,40.07495 0.125,1e-05 m 0,0 3.8651,1e-05 m -7.076,-10.56551 10.6445,1e-05 m 11.4279,-1e-05 7.3787,1e-05 m -29.2461,2.11309 11.6659,2e-05 m 11.2738,0 5.9401,-1e-05 m -27.5166,2.11311 9.5449,1e-05 m 11.9811,-1e-05 5.2688,-1e-05 m -13.6874,-10.56546 11.7475,-1e-05 m 3.3951,0 2.2559,0 m -37.1327,-2.11311 2.2481,0 m 3.2753,1e-05 1.084,-1e-05 m 13.7871,0 10.08,1e-05 m 2.3542,0 3.7064,0 m -16.0991,-12.67858 -5.3213,1e-05 m 12.3892,0 4.082,0 m -15.9512,2.11308 0.4843,1e-05 m 14.5627,0 3.2264,0 m -25.7636,25.35713 7.4688,0 m 12.8629,1e-05 3.5405,0 m -23.8097,2.11309 5.4082,1e-05 m 15.375,0 1.8186,0 m -10.2738,-12.67855 12.0708,-2e-05 m -26.5689,2.11311 6.4083,-2e-05 m 9.7363,2e-05 2.125,0 m 0,0 1.709,-2e-05 m 0,0 9.0992,0 m -33.0484,-12.67856 9.7422,0 m 11.3066,1e-05 13.8028,-2e-05 m -35.8067,2.11311 8.1836,-1e-05 m 20.4817,1e-05 8.116,-1e-05 m -37.4609,2.11308 6.4766,0 m 24.0172,1e-05 7.6409,0 m -35.2089,-6.33929 9.6856,-1e-05 m 8.8593,2e-05 2.8007,0 m 5.6563,0 5.252,0 m -24.8711,-6.33929 0.2129,1e-05 m 0,0 10.3203,-1e-05"
         inkscape:connector-curvature="0"
         id="path21778"
         style="color:#000000;clip-rule:nonzero;display:inline;overflow:visible;visibility:visible;opacity:1;isolation:auto;mix-blend-mode:normal;color-interpolation:sRGB;color-interpolation-filters:linearRGB;solid-color:#000000;solid-opacity:1;fill:none;fill-opacity:1;fill-rule:evenodd;stroke:#373e48;stroke-width:2;stroke-linecap:round;stroke-linejoin:round;stroke-miterlimit:4;stroke-dasharray:none;stroke-dashoffset:0;stroke-opacity:1;marker:none;paint-order:markers fill stroke;color-rendering:auto;image-rendering:auto;shape-rendering:auto;text-rendering:auto;enable-background:accumulate;filter-blend-mode:normal;filter-gaussianBlur-deviation:0"
         inkscape:export-xdpi="78"
         inkscape:export-ydpi="78"></path>
      <path
         sodipodi:nodetypes="ccccccccccccccccccccccccccccccccccccccccccccccccccccccccccccccccccccccccccccc"
         d=" m 4.326799999999821,22.57177999999999 2.1692,1.70428 4.1101,3.0052 -1.37,2.96101 1.0606,2.69585 2.3423,2.20971 0.1506,5.03118 m 2.5333,-33.95681 4.2988,1.26007 c 0,0 0.4861,3.44715 0.5745,3.27037 0.088,-0.17677 3.3588,-1.98874 3.3588,-1.98874 l 2.2097,-0.30935 0.045,-4.16538 m -10.6271,37.30643 2.9365,-3.04482 0.044,-2.20971 1.7678,0 0.8839,-2.20971 -0.4862,-1.5026 1.3258,-1.19324 -0.2209,-1.45841 -2.8727,-1.10486 -2.8726,-2.65165 -3.044,-0.25168 -2.0914,1.42748 -3.338,-3.65159 -0.4096,-1.23652 -0.044,-1.54679 1.9887,-0.88389 2.3865,1.81196 -0.044,-2.65165 5.0382,-4.46361 1.8119,-0.53033 -0.6629,-2.82843 -4.8231,1.18916 -2.3298,-2.68557 m 23.8322,-3.01812 -2.9779,2.17622 0.08,0.97921 5.3238,-1.06483 -1.9774,3.6131 -4.6443,0 -1.4794,-1.7637 -2.1655,1.41421 1.5909,1.85616 -0.1767,1.37002 -1.1491,1.10485 1.6303,0.0876 1.4354,-1.4524 2.502,-0.40934 1.7465,1.25484 1.6911,2.87698 -3.7704,0.55245 -4.7975,-0.13388 -1.6748,0.93604 -1.1377,3.64508 3.0822,3.95632 1.3258,0.30936 0.442,-0.88388 1.6352,-0.0884 2.3548,4.64039 -0.2651,2.74004 1.1102,3.34434 m 1.6311,0 1.7097,-2.99079 1.5689,-2.07712 0.1989,-3.00521 1.1503,-3.46056 -2.4817,-0.48864 -1.4732,-2.76934 -1.0072,-2.1131 1.2194,-1.24485 3.057,3.35356 1.8641,0.66698 1.208,-1.45749 c 0,0 -1.9003,-1.72357 -1.7236,-1.76777 0.1768,-0.0442 2.6781,-0.83471 2.6781,-0.83471"
         inkscape:connector-curvature="0"
         id="path21780"
         style="color:#000000;clip-rule:nonzero;display:inline;overflow:visible;visibility:visible;opacity:1;isolation:auto;mix-blend-mode:normal;color-interpolation:sRGB;color-interpolation-filters:linearRGB;solid-color:#000000;solid-opacity:1;fill:none;fill-opacity:1;fill-rule:evenodd;stroke:#373e48;stroke-width:2;stroke-linecap:round;stroke-linejoin:round;stroke-miterlimit:4;stroke-dasharray:none;stroke-dashoffset:0;stroke-opacity:1;marker:none;paint-order:markers fill stroke;color-rendering:auto;image-rendering:auto;shape-rendering:auto;text-rendering:auto;enable-background:accumulate;filter-blend-mode:normal;filter-gaussianBlur-deviation:0"
         inkscape:export-xdpi="78"
         inkscape:export-ydpi="78"></path>
      <path
         style="color:#000000;clip-rule:nonzero;display:inline;overflow:visible;visibility:visible;opacity:1;isolation:auto;mix-blend-mode:normal;color-interpolation:sRGB;color-interpolation-filters:linearRGB;solid-color:#000000;solid-opacity:1;fill:none;fill-opacity:1;fill-rule:evenodd;stroke:#373e48;stroke-width:2;stroke-linecap:round;stroke-linejoin:round;stroke-miterlimit:4;stroke-dasharray:none;stroke-dashoffset:0;stroke-opacity:1;marker:none;paint-order:markers fill stroke;color-rendering:auto;image-rendering:auto;shape-rendering:auto;text-rendering:auto;enable-background:accumulate;filter-blend-mode:normal;filter-gaussianBlur-deviation:0"
         id="path21782"
         inkscape:export-xdpi="78"
         inkscape:connector-curvature="0"
         d=" m 43.73759999999993,23.942870000000028 a 19.729372,19.737685 0 0 1 -19.7294,19.73776 19.729372,19.737685 0 0 1 -19.7292,-19.73776 19.729372,19.737685 0 0 1 19.7292,-19.73617 19.729372,19.737685 0 0 1 19.7294,19.73617 z"
         inkscape:export-ydpi="78"></path></g></svg>