<svg
   viewBox="0 0 48 48"
   xmlns:rdf="http://www.w3.org/1999/02/22-rdf-syntax-ns#"
   version="1.1"
   id="svg3336"
   xmlns:xlink="http://www.w3.org/1999/xlink"
   xmlns:sodipodi="http://sodipodi.sourceforge.net/DTD/sodipodi-0.dtd"
   width="48"
   xmlns:dc="http://purl.org/dc/elements/1.1/"
   xmlns:inkscape="http://www.inkscape.org/namespaces/inkscape"
   xmlns:cc="http://creativecommons.org/ns#"
   inkscape:version="0.91 r13725"
   height="48"
   xmlns:svg="http://www.w3.org/2000/svg"
   xmlns="http://www.w3.org/2000/svg"
   sodipodi:docname="1D_FC_COIL_LB_BLUE.svg">
   <title
      id="title12183">COIL Icon Pack LB Blue v0.1</title>
   <defs
      id="defs3338">
      <pattern
         x="0"
         patternUnits="userSpaceOnUse"
         height="6"
         width="6"
         y="0"
         id="EMFhbasepattern"></pattern>
      <pattern
         x="0"
         patternUnits="userSpaceOnUse"
         height="6"
         width="6"
         y="0"
         id="EMFhbasepattern-8"></pattern>
      <pattern
         x="0"
         patternUnits="userSpaceOnUse"
         height="6"
         width="6"
         y="0"
         id="EMFhbasepattern-3"></pattern>
      <pattern
         x="0"
         patternUnits="userSpaceOnUse"
         height="6"
         width="6"
         y="0"
         id="EMFhbasepattern-6"></pattern>
      <pattern
         x="0"
         patternUnits="userSpaceOnUse"
         height="6"
         width="6"
         y="0"
         id="EMFhbasepattern-5"></pattern>
      <pattern
         x="0"
         patternUnits="userSpaceOnUse"
         height="6"
         width="6"
         y="0"
         id="EMFhbasepattern-9"></pattern>
      <pattern
         x="0"
         patternUnits="userSpaceOnUse"
         height="6"
         width="6"
         y="0"
         id="EMFhbasepattern-2"></pattern>
      <pattern
         x="0"
         patternUnits="userSpaceOnUse"
         height="6"
         width="6"
         y="0"
         id="EMFhbasepattern-7"></pattern>
      <pattern
         x="0"
         patternUnits="userSpaceOnUse"
         height="6"
         width="6"
         y="0"
         id="EMFhbasepattern-31"></pattern>
      <pattern
         x="0"
         patternUnits="userSpaceOnUse"
         height="6"
         width="6"
         y="0"
         id="EMFhbasepattern-79"></pattern>
      <pattern
         x="0"
         patternUnits="userSpaceOnUse"
         height="6"
         width="6"
         y="0"
         id="EMFhbasepattern-87"></pattern>
      <pattern
         x="0"
         patternUnits="userSpaceOnUse"
         height="6"
         width="6"
         y="0"
         id="EMFhbasepattern-94"></pattern></defs>
   <sodipodi:namedview
      showgrid="true"
      inkscape:snap-intersection-paths="true"
      id="base"
      inkscape:window-maximized="1"
      inkscape:current-layer="layer4"
      pagecolor="#f5f5f5"
      inkscape:object-paths="true"
      inkscape:cy="-442.3766"
      inkscape:snap-to-guides="false"
      inkscape:pageshadow="2"
      inkscape:snap-smooth-nodes="true"
      inkscape:snap-center="true"
      inkscape:window-height="1003"
      inkscape:window-width="1920"
      inkscape:snap-bbox="true"
      inkscape:zoom="0.125"
      inkscape:window-x="-9"
      inkscape:snap-global="true"
      inkscape:snap-grids="false"
      inkscape:object-nodes="true"
      inkscape:snap-object-midpoints="true"
      inkscape:document-units="px"
      inkscape:cx="-1014.2608"
      showguides="true"
      inkscape:window-y="-9"
      borderopacity="1.0"
      bordercolor="#666666"
      inkscape:grid-bbox="true"
      inkscape:pageopacity="1">
      <inkscape:grid
         empspacing="4"
         spacingy="6"
         opacity="0.09803922"
         empcolor="#3f3fff"
         empopacity="0.14901961"
         id="grid3344"
         color="#3f3fff"
         dotted="false"
         spacingx="6"
         type="xygrid"></inkscape:grid>
      <inkscape:grid
         empspacing="48"
         spacingy="1"
         empcolor="#0e3ca4"
         empopacity="0.19607843"
         id="grid3346"
         spacingx="1"
         type="xygrid"></inkscape:grid></sodipodi:namedview>
   <metadata
      id="metadata3341">
      <rdf:RDF>
         <cc:Work
            rdf:about="">
            <dc:format>image/svg+xml</dc:format>
            <dc:type
               rdf:resource="http://purl.org/dc/dcmitype/StillImage"></dc:type>
            <dc:title>COIL Icon Pack LB Blue v0.1</dc:title>
            <dc:creator>
               <cc:Agent>
                  <dc:title>Paul Kotelevets (1D_Inc)</dc:title></cc:Agent></dc:creator>
            <dc:rights>
               <cc:Agent>
                  <dc:title></dc:title></cc:Agent></dc:rights>
            <cc:license
               rdf:resource="http://creativecommons.org/licenses/by-sa/3.0/"></cc:license>
            <dc:identifier>Light theme</dc:identifier>
            <dc:description>FreeCAD Icons Pack Light Blue (background f5f5f5ff and lighter) 
5 colors 
black 373e48ff /grey 939dacff /blue 1d7bf0ff /green 00ada3ff /violet d35fbcff</dc:description>
            <dc:contributor>
               <cc:Agent>
                  <dc:title>based on Blender 2.8 style by Andrzej Ambroz (jendrzych), Monoicon style</dc:title></cc:Agent></dc:contributor>
            <dc:date>2019</dc:date>
            <dc:relation>https://github.com/triplus/IconThemes</dc:relation>
            <dc:coverage></dc:coverage>
            <dc:source>https://forum.freecadweb.org/viewtopic.php?f=34&amp;=34687</dc:source>
            <dc:publisher>
               <cc:Agent>
                  <dc:title>FreeCAD</dc:title></cc:Agent></dc:publisher>
            <dc:subject>
               <rdf:Bag>
                  <rdf:li>FreeCAD</rdf:li>
                  <rdf:li>COIL</rdf:li>
                  <rdf:li>Icon</rdf:li>
                  <rdf:li>Pack</rdf:li>
                  <rdf:li>Theme</rdf:li></rdf:Bag></dc:subject></cc:Work>
         <cc:License
            rdf:about="http://creativecommons.org/licenses/by-sa/3.0/">
            <cc:permits
               rdf:resource="http://creativecommons.org/ns#Reproduction"></cc:permits>
            <cc:permits
               rdf:resource="http://creativecommons.org/ns#Distribution"></cc:permits>
            <cc:requires
               rdf:resource="http://creativecommons.org/ns#Notice"></cc:requires>
            <cc:requires
               rdf:resource="http://creativecommons.org/ns#Attribution"></cc:requires>
            <cc:permits
               rdf:resource="http://creativecommons.org/ns#DerivativeWorks"></cc:permits>
            <cc:requires
               rdf:resource="http://creativecommons.org/ns#ShareAlike"></cc:requires></cc:License></rdf:RDF></metadata>
   <g
      inkscape:groupmode="layer"
      inkscape:label="icon"
      id="icon">
      <path
         style="color:#000000;clip-rule:nonzero;display:inline;overflow:visible;visibility:visible;opacity:1;isolation:auto;mix-blend-mode:normal;color-interpolation:sRGB;color-interpolation-filters:linearRGB;solid-color:#000000;solid-opacity:1;fill:none;fill-opacity:1;fill-rule:evenodd;stroke:#373e48;stroke-width:2;stroke-linecap:round;stroke-linejoin:round;stroke-miterlimit:4;stroke-dasharray:none;stroke-dashoffset:0;stroke-opacity:1;marker:none;paint-order:markers fill stroke;color-rendering:auto;image-rendering:auto;shape-rendering:auto;text-rendering:auto;enable-background:accumulate;filter-blend-mode:normal;filter-gaussianBlur-deviation:0"
         id="path7961"
         inkscape:export-xdpi="78.094009"
         inkscape:connector-curvature="0"
         d=" m 17.68362000000002,14.478500000000054 a 11.362082,11.362169 50 0 0 -6.89062,2.6426 11.362082,11.362169 50 0 0 -1.40039,16.0059 11.362082,11.362169 50 0 0 12.79101,3.2714 14.611623,14.611736 49.896039 0 1 -1.20312,-1.2461 14.611623,14.611736 49.896039 0 1 1.10156,-19.9531 11.362082,11.362169 50 0 0 -4.39844,-0.7207 z"
         inkscape:export-ydpi="78.094009"></path>
      <path
         style="color:#000000;clip-rule:nonzero;display:inline;overflow:visible;visibility:visible;opacity:1;isolation:auto;mix-blend-mode:normal;color-interpolation:sRGB;color-interpolation-filters:linearRGB;solid-color:#000000;solid-opacity:1;fill:none;fill-opacity:1;fill-rule:evenodd;stroke:#373e48;stroke-width:2;stroke-linecap:round;stroke-linejoin:round;stroke-miterlimit:4;stroke-dasharray:none;stroke-dashoffset:0;stroke-opacity:1;marker:none;paint-order:markers fill stroke;color-rendering:auto;image-rendering:auto;shape-rendering:auto;text-rendering:auto;enable-background:accumulate;filter-blend-mode:normal;filter-gaussianBlur-deviation:0"
         id="ellipse7265"
         inkscape:export-xdpi="78.094009"
         inkscape:connector-curvature="0"
         d=" m 25.093780000000038,16.88869999999997 a 11.362082,11.362169 50 0 0 -0.22266,0.1679 11.362082,11.362169 50 0 0 -0.59765,0.5372 11.362082,11.362169 50 0 0 -0.77539,0.83 11.362082,11.362169 50 0 0 -0.68946,0.9024 11.362082,11.362169 50 0 0 -0.5957,0.9687 11.362082,11.362169 50 0 0 -0.49609,1.0215 11.362082,11.362169 50 0 0 -0.39063,1.0664 11.362082,11.362169 50 0 0 -0.2832,1.0996 11.362082,11.362169 50 0 0 -0.17188,1.1231 11.362082,11.362169 50 0 0 -0.0586,1.1328 11.362082,11.362169 50 0 0 0.0547,1.1347 11.362082,11.362169 50 0 0 0.16601,1.1231 11.362082,11.362169 50 0 0 0.2793,1.1016 11.362082,11.362169 50 0 0 0.38867,1.0683 11.362082,11.362169 50 0 0 0.49219,1.0235 11.362082,11.362169 50 0 0 0.5918,0.9687 11.362082,11.362169 50 0 0 0.68554,0.9043 11.362082,11.362169 50 0 0 0.53711,0.5977 11.362082,11.362169 50 0 0 0.83008,0.7773 11.362082,11.362169 50 0 0 0.33789,0.2578 11.362082,11.362169 50 0 0 0.22266,-0.168 11.362082,11.362169 50 0 0 1.40234,-16.0058 11.362082,11.362169 50 0 0 -1.70703,-1.6328 z"
         inkscape:export-ydpi="78.094009"></path>
      <path
         style="color:#000000;clip-rule:nonzero;display:inline;overflow:visible;visibility:visible;opacity:1;isolation:auto;mix-blend-mode:normal;color-interpolation:sRGB;color-interpolation-filters:linearRGB;solid-color:#000000;solid-opacity:1;fill:none;fill-opacity:1;fill-rule:evenodd;stroke:#373e48;stroke-width:2;stroke-linecap:round;stroke-linejoin:round;stroke-miterlimit:4;stroke-dasharray:none;stroke-dashoffset:0;stroke-opacity:1;marker:none;paint-order:markers fill stroke;color-rendering:auto;image-rendering:auto;shape-rendering:auto;text-rendering:auto;enable-background:accumulate;filter-blend-mode:normal;filter-gaussianBlur-deviation:0"
         id="ellipse7931"
         inkscape:export-xdpi="78.094009"
         inkscape:connector-curvature="0"
         d=" m 32.19533999999999,14.398400000000038 a 11.362082,11.362169 50 0 0 -4.11523,0.7813 14.611623,14.611736 49.896039 0 1 1.20898,1.2519 14.611623,14.611736 49.896039 0 1 -1.10156,19.9532 11.362082,11.362169 50 0 0 11.28906,-1.92 11.362082,11.362169 50 0 0 1.40039,-16.0078 11.362082,11.362169 50 0 0 -8.68164,-4.0586 z"
         inkscape:export-ydpi="78.094009"></path></g></svg>