<svg
   viewBox="0 0 48 48"
   xmlns:rdf="http://www.w3.org/1999/02/22-rdf-syntax-ns#"
   version="1.1"
   id="svg3336"
   xmlns:xlink="http://www.w3.org/1999/xlink"
   xmlns:sodipodi="http://sodipodi.sourceforge.net/DTD/sodipodi-0.dtd"
   width="48"
   xmlns:dc="http://purl.org/dc/elements/1.1/"
   xmlns:inkscape="http://www.inkscape.org/namespaces/inkscape"
   xmlns:cc="http://creativecommons.org/ns#"
   inkscape:version="0.91 r13725"
   height="48"
   xmlns:svg="http://www.w3.org/2000/svg"
   xmlns="http://www.w3.org/2000/svg"
   sodipodi:docname="1D_FC_COIL_LB_BLUE.svg">
   <title
      id="title12183">COIL Icon Pack LB Blue v0.1</title>
   <defs
      id="defs3338">
      <pattern
         x="0"
         patternUnits="userSpaceOnUse"
         height="6"
         width="6"
         y="0"
         id="EMFhbasepattern"></pattern>
      <pattern
         x="0"
         patternUnits="userSpaceOnUse"
         height="6"
         width="6"
         y="0"
         id="EMFhbasepattern-8"></pattern>
      <pattern
         x="0"
         patternUnits="userSpaceOnUse"
         height="6"
         width="6"
         y="0"
         id="EMFhbasepattern-3"></pattern>
      <pattern
         x="0"
         patternUnits="userSpaceOnUse"
         height="6"
         width="6"
         y="0"
         id="EMFhbasepattern-6"></pattern>
      <pattern
         x="0"
         patternUnits="userSpaceOnUse"
         height="6"
         width="6"
         y="0"
         id="EMFhbasepattern-5"></pattern>
      <pattern
         x="0"
         patternUnits="userSpaceOnUse"
         height="6"
         width="6"
         y="0"
         id="EMFhbasepattern-9"></pattern>
      <pattern
         x="0"
         patternUnits="userSpaceOnUse"
         height="6"
         width="6"
         y="0"
         id="EMFhbasepattern-2"></pattern>
      <pattern
         x="0"
         patternUnits="userSpaceOnUse"
         height="6"
         width="6"
         y="0"
         id="EMFhbasepattern-7"></pattern>
      <pattern
         x="0"
         patternUnits="userSpaceOnUse"
         height="6"
         width="6"
         y="0"
         id="EMFhbasepattern-31"></pattern>
      <pattern
         x="0"
         patternUnits="userSpaceOnUse"
         height="6"
         width="6"
         y="0"
         id="EMFhbasepattern-79"></pattern>
      <pattern
         x="0"
         patternUnits="userSpaceOnUse"
         height="6"
         width="6"
         y="0"
         id="EMFhbasepattern-87"></pattern>
      <pattern
         x="0"
         patternUnits="userSpaceOnUse"
         height="6"
         width="6"
         y="0"
         id="EMFhbasepattern-94"></pattern></defs>
   <sodipodi:namedview
      showgrid="true"
      inkscape:snap-intersection-paths="true"
      id="base"
      inkscape:window-maximized="1"
      inkscape:current-layer="layer4"
      pagecolor="#f5f5f5"
      inkscape:object-paths="true"
      inkscape:cy="-442.3766"
      inkscape:snap-to-guides="false"
      inkscape:pageshadow="2"
      inkscape:snap-smooth-nodes="true"
      inkscape:snap-center="true"
      inkscape:window-height="1003"
      inkscape:window-width="1920"
      inkscape:snap-bbox="true"
      inkscape:zoom="0.125"
      inkscape:window-x="-9"
      inkscape:snap-global="true"
      inkscape:snap-grids="false"
      inkscape:object-nodes="true"
      inkscape:snap-object-midpoints="true"
      inkscape:document-units="px"
      inkscape:cx="-1014.2608"
      showguides="true"
      inkscape:window-y="-9"
      borderopacity="1.0"
      bordercolor="#666666"
      inkscape:grid-bbox="true"
      inkscape:pageopacity="1">
      <inkscape:grid
         empspacing="4"
         spacingy="6"
         opacity="0.09803922"
         empcolor="#3f3fff"
         empopacity="0.14901961"
         id="grid3344"
         color="#3f3fff"
         dotted="false"
         spacingx="6"
         type="xygrid"></inkscape:grid>
      <inkscape:grid
         empspacing="48"
         spacingy="1"
         empcolor="#0e3ca4"
         empopacity="0.19607843"
         id="grid3346"
         spacingx="1"
         type="xygrid"></inkscape:grid></sodipodi:namedview>
   <metadata
      id="metadata3341">
      <rdf:RDF>
         <cc:Work
            rdf:about="">
            <dc:format>image/svg+xml</dc:format>
            <dc:type
               rdf:resource="http://purl.org/dc/dcmitype/StillImage"></dc:type>
            <dc:title>COIL Icon Pack LB Blue v0.1</dc:title>
            <dc:creator>
               <cc:Agent>
                  <dc:title>Paul Kotelevets (1D_Inc)</dc:title></cc:Agent></dc:creator>
            <dc:rights>
               <cc:Agent>
                  <dc:title></dc:title></cc:Agent></dc:rights>
            <cc:license
               rdf:resource="http://creativecommons.org/licenses/by-sa/3.0/"></cc:license>
            <dc:identifier>Light theme</dc:identifier>
            <dc:description>FreeCAD Icons Pack Light Blue (background f5f5f5ff and lighter) 
5 colors 
black 373e48ff /grey 939dacff /blue 1d7bf0ff /green 00ada3ff /violet d35fbcff</dc:description>
            <dc:contributor>
               <cc:Agent>
                  <dc:title>based on Blender 2.8 style by Andrzej Ambroz (jendrzych), Monoicon style</dc:title></cc:Agent></dc:contributor>
            <dc:date>2019</dc:date>
            <dc:relation>https://github.com/triplus/IconThemes</dc:relation>
            <dc:coverage></dc:coverage>
            <dc:source>https://forum.freecadweb.org/viewtopic.php?f=34&amp;=34687</dc:source>
            <dc:publisher>
               <cc:Agent>
                  <dc:title>FreeCAD</dc:title></cc:Agent></dc:publisher>
            <dc:subject>
               <rdf:Bag>
                  <rdf:li>FreeCAD</rdf:li>
                  <rdf:li>COIL</rdf:li>
                  <rdf:li>Icon</rdf:li>
                  <rdf:li>Pack</rdf:li>
                  <rdf:li>Theme</rdf:li></rdf:Bag></dc:subject></cc:Work>
         <cc:License
            rdf:about="http://creativecommons.org/licenses/by-sa/3.0/">
            <cc:permits
               rdf:resource="http://creativecommons.org/ns#Reproduction"></cc:permits>
            <cc:permits
               rdf:resource="http://creativecommons.org/ns#Distribution"></cc:permits>
            <cc:requires
               rdf:resource="http://creativecommons.org/ns#Notice"></cc:requires>
            <cc:requires
               rdf:resource="http://creativecommons.org/ns#Attribution"></cc:requires>
            <cc:permits
               rdf:resource="http://creativecommons.org/ns#DerivativeWorks"></cc:permits>
            <cc:requires
               rdf:resource="http://creativecommons.org/ns#ShareAlike"></cc:requires></cc:License></rdf:RDF></metadata>
   <g
      inkscape:groupmode="layer"
      inkscape:label="icon"
      id="icon">
      <path
         d=" m 25.47440000000006,25.825589999999977 11.9356,0 m -11.1366,1.02614 13.539,1e-05 m -28.4609,-1e-05 5.0196,0 m -6.3164,0 1.2968,0 m -1.3338,0 0.037,0 m 20.7636,1.02618 8.6523,-1e-05 m -12.3984,0 1.5098,0 m -18.252,1e-05 7.1523,1e-05 m 13.8575,1.02616 7.791,0 m -29.2754,0 8.7871,0 m 13.2169,1.02615 6.9414,1e-05 m -29.4199,0 11.9316,0 m 11.0684,1.02615 6.3515,0 m -29.2147,-1e-05 12.0644,0 m 11.2558,1.02616 5.8262,0 m -28.7423,0 11.125,0 m 11.6915,1.02619 5.7793,0 m -28.1465,0 10.0802,-1e-05 m 12.1893,1.02616 5.0996,0 m -26.2813,0 9.3243,0 m 11.9473,1.02616 4.2519,0 m -24.4374,0 7.8983,1e-05 m 12.629,1.02617 3.3223,0 m -23.7287,0 7.3672,1e-05 m 13.379,1.02614 2.3964,0 m -23.1113,1e-05 5.4511,1e-05 m -5.4197,1.02613 5.3984,1e-05 m -5.3692,1.02618 4.7675,1e-05 m -4.7108,1.02614 3.7227,0 m -2.0606,1.02616 1.0684,0 m 6.9101,-36.94185 2.9317,-1e-05 m -0.7131,20.52326 12.1895,-1e-05 m -29.6523,0 0.9687,1e-05 m 9.4181,-19.4971 8.2011,1e-05 m -10.1172,1.02617 10.1074,-1e-05 m 7.5469,1.02615 1.3262,0 m -15.4746,0 6.5899,-1e-05 m 6.1562,1.02618 4.1719,0 m -16.3262,0 5.9864,0 m 10.3926,1.02617 1.1601,0 m -6.3105,-1e-05 3.3066,1e-05 m -14.3554,-1e-05 2.5098,0 m 13.1268,1.02617 2.7773,0 m -28.7128,0 0.9121,0 m 24.4629,1.02615 4.2382,1e-05 m -11.9354,-1e-05 1.4629,-1e-05 m -20.0568,2e-05 2.7188,0 m 23.0098,1.02617 5.5703,0 m -13.7267,1e-05 3.3478,-1e-05 m -16.7247,1e-05 4.5918,0 m -9.5664,-1e-05 4.3886,0 m 14.842,1.02615 13.5468,1e-05 m -33.4531,-1e-05 10.4824,0 m 9.8828,1.02618 13.6758,0 m -34.6621,-1e-05 10.2715,0 m 16.0584,1.02618 8.8497,-2e-05 m -14.4025,2e-05 1.664,0 m -22.9373,-1e-05 9.0663,1e-05 m 18.7677,1.02615 8.3008,0 m -15.8516,1e-05 1.6406,0 m -22.3807,-1e-05 8.3653,0 m 20.5292,1.02615 8.0625,0 m -37.3321,0 7.5821,0 m 22.289,1.02619 7.8008,0 m -37.9882,0 6.7403,0 m 14.5117,1.02614 16.9686,1e-05 m -38.4824,0 6.3379,0 m 25.9141,1.02615 3.6874,0 m -15.6777,0 10.3203,0 m -25.7793,1e-05 1.5527,0 m -6.5468,-1e-05 2.789,1e-05 m 30.5898,1.02619 3.752,-1e-05 m -16.998,1e-05 10.6035,-1e-05 m -30.8925,0 2.3691,1e-05 m 32.1015,1.02615 3.1446,-1e-05 m -17.6483,-1e-05 11.4159,0 m -31.2461,0 2.334,0 m -2.5469,1e-05 0.2129,-1e-05 m 19.5098,1.02615 12.2578,1e-05 m -30.4609,-1e-05 1.3848,0"
         inkscape:connector-curvature="0"
         id="path50864"
         style="color:#000000;clip-rule:nonzero;display:inline;overflow:visible;visibility:visible;opacity:1;isolation:auto;mix-blend-mode:normal;color-interpolation:sRGB;color-interpolation-filters:linearRGB;solid-color:#000000;solid-opacity:1;fill:none;fill-opacity:1;fill-rule:evenodd;stroke:#373e48;stroke-width:2;stroke-linecap:round;stroke-linejoin:round;stroke-miterlimit:4;stroke-dasharray:none;stroke-dashoffset:0;stroke-opacity:1;marker:none;paint-order:markers fill stroke;color-rendering:auto;image-rendering:auto;shape-rendering:auto;text-rendering:auto;enable-background:accumulate;filter-blend-mode:normal;filter-gaussianBlur-deviation:0"
         inkscape:export-xdpi="78"
         inkscape:export-ydpi="78"></path>
      <path
         sodipodi:nodetypes="ccccccccccccccccccccccccccccccccccccccccccccccccccccccccccccccccccccccccccccc"
         d=" m 4.326799999999821,22.57177999999999 2.1692,1.70428 4.1101,3.0052 -1.37,2.96101 1.0606,2.69585 2.3423,2.20971 0.1506,5.03118 m 2.5333,-33.95681 4.2988,1.26007 c 0,0 0.4861,3.44715 0.5745,3.27037 0.088,-0.17677 3.3588,-1.98874 3.3588,-1.98874 l 2.2097,-0.30935 0.045,-4.16538 m -10.6271,37.30643 2.9365,-3.04482 0.044,-2.20971 1.7678,0 0.8839,-2.20971 -0.4862,-1.5026 1.3258,-1.19324 -0.2209,-1.45841 -2.8727,-1.10486 -2.8726,-2.65165 -3.044,-0.25168 -2.0914,1.42748 -3.338,-3.65159 -0.4096,-1.23652 -0.044,-1.54679 1.9887,-0.88389 2.3865,1.81196 -0.044,-2.65165 5.0382,-4.46361 1.8119,-0.53033 -0.6629,-2.82843 -4.8231,1.18916 -2.3298,-2.68557 m 23.8322,-3.01812 -2.9779,2.17622 0.08,0.97921 5.3238,-1.06483 -1.9774,3.6131 -4.6443,0 -1.4794,-1.7637 -2.1655,1.41421 1.5909,1.85616 -0.1767,1.37002 -1.1491,1.10485 1.6303,0.0876 1.4354,-1.4524 2.502,-0.40934 1.7465,1.25484 1.6911,2.87698 -3.7704,0.55245 -4.7975,-0.13388 -1.6748,0.93604 -1.1377,3.64508 3.0822,3.95632 1.3258,0.30936 0.442,-0.88388 1.6352,-0.0884 2.3548,4.64039 -0.2651,2.74004 1.1102,3.34434 1.6311,0 1.7097,-2.99079 1.5689,-2.07712 0.1989,-3.00521 1.1503,-3.46056 -2.4817,-0.48864 -1.4732,-2.76934 -1.0072,-2.1131 1.2194,-1.24485 3.057,3.35356 1.8641,0.66698 1.208,-1.45749 c 0,0 -1.9003,-1.72357 -1.7236,-1.76777 0.1768,-0.0442 2.6781,-0.83471 2.6781,-0.83471"
         inkscape:connector-curvature="0"
         id="path51212"
         style="color:#000000;clip-rule:nonzero;display:inline;overflow:visible;visibility:visible;opacity:1;isolation:auto;mix-blend-mode:normal;color-interpolation:sRGB;color-interpolation-filters:linearRGB;solid-color:#000000;solid-opacity:1;fill:none;fill-opacity:1;fill-rule:evenodd;stroke:#373e48;stroke-width:2;stroke-linecap:round;stroke-linejoin:round;stroke-miterlimit:4;stroke-dasharray:none;stroke-dashoffset:0;stroke-opacity:1;marker:none;paint-order:markers fill stroke;color-rendering:auto;image-rendering:auto;shape-rendering:auto;text-rendering:auto;enable-background:accumulate;filter-blend-mode:normal;filter-gaussianBlur-deviation:0"
         inkscape:export-xdpi="78"
         inkscape:export-ydpi="78"></path>
      <path
         d=" m 43.73759999999993,23.942870000000028 a 19.729372,19.737685 0 0 1 -19.7294,19.73776 19.729372,19.737685 0 0 1 -19.7292,-19.73776 19.729372,19.737685 0 0 1 19.7292,-19.73617 19.729372,19.737685 0 0 1 19.7294,19.73617 z"
         id="path51218"
         inkscape:connector-curvature="0"
         style="color:#000000;clip-rule:nonzero;display:inline;overflow:visible;visibility:visible;opacity:1;isolation:auto;mix-blend-mode:normal;color-interpolation:sRGB;color-interpolation-filters:linearRGB;solid-color:#000000;solid-opacity:1;fill:none;fill-opacity:1;fill-rule:evenodd;stroke:#373e48;stroke-width:2;stroke-linecap:round;stroke-linejoin:round;stroke-miterlimit:4;stroke-dasharray:none;stroke-dashoffset:0;stroke-opacity:1;marker:none;paint-order:markers fill stroke;color-rendering:auto;image-rendering:auto;shape-rendering:auto;text-rendering:auto;enable-background:accumulate;filter-blend-mode:normal;filter-gaussianBlur-deviation:0"
         inkscape:export-xdpi="78"
         inkscape:export-ydpi="78"></path></g></svg>