<svg
   viewBox="0 0 48 48"
   xmlns:rdf="http://www.w3.org/1999/02/22-rdf-syntax-ns#"
   version="1.1"
   id="svg3336"
   xmlns:xlink="http://www.w3.org/1999/xlink"
   xmlns:sodipodi="http://sodipodi.sourceforge.net/DTD/sodipodi-0.dtd"
   width="48"
   xmlns:dc="http://purl.org/dc/elements/1.1/"
   xmlns:inkscape="http://www.inkscape.org/namespaces/inkscape"
   xmlns:cc="http://creativecommons.org/ns#"
   inkscape:version="0.91 r13725"
   height="48"
   xmlns:svg="http://www.w3.org/2000/svg"
   xmlns="http://www.w3.org/2000/svg"
   sodipodi:docname="1D_FC_COIL_LA_BASE.svg">
   <title
      id="title12183">COIL Icon Pack LA v0.1</title>
   <defs
      id="defs3338">
      <pattern
         x="0"
         patternUnits="userSpaceOnUse"
         height="6"
         width="6"
         y="0"
         id="EMFhbasepattern"></pattern>
      <pattern
         x="0"
         patternUnits="userSpaceOnUse"
         height="6"
         width="6"
         y="0"
         id="EMFhbasepattern-8"></pattern>
      <pattern
         x="0"
         patternUnits="userSpaceOnUse"
         height="6"
         width="6"
         y="0"
         id="EMFhbasepattern-3"></pattern>
      <pattern
         x="0"
         patternUnits="userSpaceOnUse"
         height="6"
         width="6"
         y="0"
         id="EMFhbasepattern-6"></pattern>
      <pattern
         x="0"
         patternUnits="userSpaceOnUse"
         height="6"
         width="6"
         y="0"
         id="EMFhbasepattern-5"></pattern>
      <pattern
         x="0"
         patternUnits="userSpaceOnUse"
         height="6"
         width="6"
         y="0"
         id="EMFhbasepattern-9"></pattern>
      <pattern
         x="0"
         patternUnits="userSpaceOnUse"
         height="6"
         width="6"
         y="0"
         id="EMFhbasepattern-2"></pattern>
      <pattern
         x="0"
         patternUnits="userSpaceOnUse"
         height="6"
         width="6"
         y="0"
         id="EMFhbasepattern-7"></pattern>
      <pattern
         x="0"
         patternUnits="userSpaceOnUse"
         height="6"
         width="6"
         y="0"
         id="EMFhbasepattern-31"></pattern>
      <pattern
         x="0"
         patternUnits="userSpaceOnUse"
         height="6"
         width="6"
         y="0"
         id="EMFhbasepattern-79"></pattern>
      <pattern
         x="0"
         patternUnits="userSpaceOnUse"
         height="6"
         width="6"
         y="0"
         id="EMFhbasepattern-87"></pattern>
      <pattern
         x="0"
         patternUnits="userSpaceOnUse"
         height="6"
         width="6"
         y="0"
         id="EMFhbasepattern-94"></pattern>
      <pattern
         x="0"
         patternUnits="userSpaceOnUse"
         height="6"
         width="6"
         y="0"
         id="EMFhbasepattern-53"></pattern>
      <pattern
         x="0"
         patternUnits="userSpaceOnUse"
         height="6"
         width="6"
         y="0"
         id="EMFhbasepattern-51"></pattern>
      <pattern
         x="0"
         patternUnits="userSpaceOnUse"
         height="6"
         width="6"
         y="0"
         id="EMFhbasepattern-95"></pattern>
      <pattern
         x="0"
         patternUnits="userSpaceOnUse"
         height="6"
         width="6"
         y="0"
         id="EMFhbasepattern-52"></pattern>
      <pattern
         x="0"
         patternUnits="userSpaceOnUse"
         height="6"
         width="6"
         y="0"
         id="EMFhbasepattern-1"></pattern>
      <pattern
         x="0"
         patternUnits="userSpaceOnUse"
         height="6"
         width="6"
         y="0"
         id="EMFhbasepattern-22"></pattern>
      <pattern
         x="0"
         patternUnits="userSpaceOnUse"
         height="6"
         width="6"
         y="0"
         id="EMFhbasepattern-19"></pattern>
      <pattern
         x="0"
         patternUnits="userSpaceOnUse"
         height="6"
         width="6"
         y="0"
         id="EMFhbasepattern-81"></pattern>
      <pattern
         x="0"
         patternUnits="userSpaceOnUse"
         height="6"
         width="6"
         y="0"
         id="EMFhbasepattern-535"></pattern>
      <pattern
         x="0"
         patternUnits="userSpaceOnUse"
         height="6"
         width="6"
         y="0"
         id="EMFhbasepattern-0"></pattern>
      <pattern
         x="0"
         patternUnits="userSpaceOnUse"
         height="6"
         width="6"
         y="0"
         id="EMFhbasepattern-37"></pattern>
      <pattern
         x="0"
         patternUnits="userSpaceOnUse"
         height="6"
         width="6"
         y="0"
         id="EMFhbasepattern-58"></pattern>
      <pattern
         x="0"
         patternUnits="userSpaceOnUse"
         height="6"
         width="6"
         y="0"
         id="EMFhbasepattern-73"></pattern>
      <pattern
         x="0"
         patternUnits="userSpaceOnUse"
         height="6"
         width="6"
         y="0"
         id="EMFhbasepattern-72"></pattern>
      <pattern
         x="0"
         patternUnits="userSpaceOnUse"
         height="6"
         width="6"
         y="0"
         id="EMFhbasepattern-63"></pattern>
      <pattern
         x="0"
         patternUnits="userSpaceOnUse"
         height="6"
         width="6"
         y="0"
         id="EMFhbasepattern-76"></pattern>
      <pattern
         x="0"
         patternUnits="userSpaceOnUse"
         height="6"
         width="6"
         y="0"
         id="EMFhbasepattern-510"></pattern>
      <pattern
         x="0"
         patternUnits="userSpaceOnUse"
         height="6"
         width="6"
         y="0"
         id="EMFhbasepattern-13"></pattern>
      <pattern
         x="0"
         patternUnits="userSpaceOnUse"
         height="6"
         width="6"
         y="0"
         id="EMFhbasepattern-00"></pattern>
      <pattern
         x="0"
         patternUnits="userSpaceOnUse"
         height="6"
         width="6"
         y="0"
         id="EMFhbasepattern-738"></pattern>
      <pattern
         x="0"
         patternUnits="userSpaceOnUse"
         height="6"
         width="6"
         y="0"
         id="EMFhbasepattern-26"></pattern>
      <pattern
         x="0"
         patternUnits="userSpaceOnUse"
         height="6"
         width="6"
         y="0"
         id="EMFhbasepattern-86"></pattern>
      <pattern
         x="0"
         patternUnits="userSpaceOnUse"
         height="6"
         width="6"
         y="0"
         id="EMFhbasepattern-959"></pattern>
      <pattern
         x="0"
         patternUnits="userSpaceOnUse"
         height="6"
         width="6"
         y="0"
         id="EMFhbasepattern-33"></pattern>
      <pattern
         x="0"
         patternUnits="userSpaceOnUse"
         height="6"
         width="6"
         y="0"
         id="EMFhbasepattern-5106"></pattern>
      <pattern
         x="0"
         patternUnits="userSpaceOnUse"
         height="6"
         width="6"
         y="0"
         id="EMFhbasepattern-869"></pattern>
      <pattern
         x="0"
         patternUnits="userSpaceOnUse"
         height="6"
         width="6"
         y="0"
         id="EMFhbasepattern-08"></pattern>
      <pattern
         x="0"
         patternUnits="userSpaceOnUse"
         height="6"
         width="6"
         y="0"
         id="EMFhbasepattern-54"></pattern>
      <pattern
         x="0"
         patternUnits="userSpaceOnUse"
         height="6"
         width="6"
         y="0"
         id="EMFhbasepattern-30"></pattern>
      <pattern
         x="0"
         patternUnits="userSpaceOnUse"
         height="6"
         width="6"
         y="0"
         id="EMFhbasepattern-34"></pattern>
      <pattern
         x="0"
         patternUnits="userSpaceOnUse"
         height="6"
         width="6"
         y="0"
         id="EMFhbasepattern-90"></pattern>
      <pattern
         x="0"
         patternUnits="userSpaceOnUse"
         height="6"
         width="6"
         y="0"
         id="EMFhbasepattern-4"></pattern>
      <pattern
         x="0"
         patternUnits="userSpaceOnUse"
         height="6"
         width="6"
         y="0"
         id="EMFhbasepattern-378"></pattern>
      <pattern
         x="0"
         patternUnits="userSpaceOnUse"
         height="6"
         width="6"
         y="0"
         id="EMFhbasepattern-78"></pattern>
      <pattern
         x="0"
         patternUnits="userSpaceOnUse"
         height="6"
         width="6"
         y="0"
         id="EMFhbasepattern-60"></pattern>
      <pattern
         x="0"
         patternUnits="userSpaceOnUse"
         height="6"
         width="6"
         y="0"
         id="EMFhbasepattern-64"></pattern>
      <pattern
         x="0"
         patternUnits="userSpaceOnUse"
         height="6"
         width="6"
         y="0"
         id="EMFhbasepattern-84"></pattern>
      <pattern
         x="0"
         patternUnits="userSpaceOnUse"
         height="6"
         width="6"
         y="0"
         id="EMFhbasepattern-01"></pattern>
      <pattern
         x="0"
         patternUnits="userSpaceOnUse"
         height="6"
         width="6"
         y="0"
         id="EMFhbasepattern-518"></pattern>
      <pattern
         x="0"
         patternUnits="userSpaceOnUse"
         height="6"
         width="6"
         y="0"
         id="EMFhbasepattern-725"></pattern>
      <pattern
         x="0"
         patternUnits="userSpaceOnUse"
         height="6"
         width="6"
         y="0"
         id="EMFhbasepattern-03"></pattern>
      <pattern
         x="0"
         patternUnits="userSpaceOnUse"
         height="6"
         width="6"
         y="0"
         id="EMFhbasepattern-541"></pattern>
      <pattern
         x="0"
         patternUnits="userSpaceOnUse"
         height="6"
         width="6"
         y="0"
         id="EMFhbasepattern-02"></pattern>
      <pattern
         x="0"
         patternUnits="userSpaceOnUse"
         height="6"
         width="6"
         y="0"
         id="EMFhbasepattern-56"></pattern>
      <pattern
         x="0"
         patternUnits="userSpaceOnUse"
         height="6"
         width="6"
         y="0"
         id="EMFhbasepattern-138"></pattern>
      <pattern
         x="0"
         patternUnits="userSpaceOnUse"
         height="6"
         width="6"
         y="0"
         id="EMFhbasepattern-07"></pattern>
      <pattern
         x="0"
         patternUnits="userSpaceOnUse"
         height="6"
         width="6"
         y="0"
         id="EMFhbasepattern-24"></pattern>
      <pattern
         x="0"
         patternUnits="userSpaceOnUse"
         height="6"
         width="6"
         y="0"
         id="EMFhbasepattern-315"></pattern>
      <pattern
         x="0"
         patternUnits="userSpaceOnUse"
         height="6"
         width="6"
         y="0"
         id="EMFhbasepattern-09"></pattern>
      <pattern
         x="0"
         patternUnits="userSpaceOnUse"
         height="6"
         width="6"
         y="0"
         id="EMFhbasepattern-222"></pattern>
      <pattern
         x="0"
         patternUnits="userSpaceOnUse"
         height="6"
         width="6"
         y="0"
         id="EMFhbasepattern-43"></pattern>
      <pattern
         x="0"
         patternUnits="userSpaceOnUse"
         height="6"
         width="6"
         y="0"
         id="EMFhbasepattern-531"></pattern>
      <pattern
         x="0"
         patternUnits="userSpaceOnUse"
         height="6"
         width="6"
         y="0"
         id="EMFhbasepattern-085"></pattern>
      <pattern
         x="0"
         patternUnits="userSpaceOnUse"
         height="6"
         width="6"
         y="0"
         id="EMFhbasepattern-46"></pattern>
      <pattern
         x="0"
         patternUnits="userSpaceOnUse"
         height="6"
         width="6"
         y="0"
         id="EMFhbasepattern-638"></pattern>
      <pattern
         x="0"
         patternUnits="userSpaceOnUse"
         height="6"
         width="6"
         y="0"
         id="EMFhbasepattern-762"></pattern>
      <pattern
         x="0"
         patternUnits="userSpaceOnUse"
         height="6"
         width="6"
         y="0"
         id="EMFhbasepattern-3159"></pattern>
      <pattern
         x="0"
         patternUnits="userSpaceOnUse"
         height="6"
         width="6"
         y="0"
         id="EMFhbasepattern-515"></pattern>
      <pattern
         x="0"
         patternUnits="userSpaceOnUse"
         height="6"
         width="6"
         y="0"
         id="EMFhbasepattern-48"></pattern>
      <pattern
         x="0"
         patternUnits="userSpaceOnUse"
         height="6"
         width="6"
         y="0"
         id="EMFhbasepattern-567"></pattern>
      <pattern
         x="0"
         patternUnits="userSpaceOnUse"
         height="6"
         width="6"
         y="0"
         id="EMFhbasepattern-18"></pattern>
      <pattern
         x="0"
         patternUnits="userSpaceOnUse"
         height="6"
         width="6"
         y="0"
         id="EMFhbasepattern-192"></pattern>
      <pattern
         x="0"
         patternUnits="userSpaceOnUse"
         height="6"
         width="6"
         y="0"
         id="EMFhbasepattern-001"></pattern></defs>
   <sodipodi:namedview
      showgrid="true"
      inkscape:snap-intersection-paths="true"
      id="base"
      inkscape:window-maximized="1"
      inkscape:current-layer="layer2"
      pagecolor="#ffffff"
      inkscape:object-paths="true"
      inkscape:cy="-381.47399"
      inkscape:snap-to-guides="false"
      inkscape:pageshadow="2"
      inkscape:snap-smooth-nodes="true"
      inkscape:snap-center="true"
      inkscape:window-height="1003"
      inkscape:window-width="1920"
      inkscape:snap-bbox="true"
      inkscape:zoom="0.12500001"
      inkscape:window-x="-9"
      inkscape:snap-global="false"
      inkscape:snap-grids="false"
      inkscape:object-nodes="true"
      inkscape:snap-object-midpoints="true"
      inkscape:document-units="px"
      inkscape:cx="1384.2649"
      showguides="false"
      inkscape:window-y="-9"
      borderopacity="1.0"
      bordercolor="#666666"
      inkscape:grid-bbox="true"
      inkscape:pageopacity="0.0">
      <inkscape:grid
         empspacing="4"
         spacingy="6"
         opacity="0.09803922"
         empcolor="#3f3fff"
         empopacity="0.14901961"
         id="grid3344"
         color="#3f3fff"
         dotted="false"
         spacingx="6"
         type="xygrid"></inkscape:grid>
      <inkscape:grid
         empspacing="48"
         spacingy="1"
         empcolor="#0e3ca4"
         empopacity="0.19607843"
         id="grid3346"
         spacingx="1"
         type="xygrid"></inkscape:grid></sodipodi:namedview>
   <metadata
      id="metadata3341">
      <rdf:RDF>
         <cc:Work
            rdf:about="">
            <dc:format>image/svg+xml</dc:format>
            <dc:type
               rdf:resource="http://purl.org/dc/dcmitype/StillImage"></dc:type>
            <dc:title>COIL Icon Pack LA v0.1</dc:title>
            <dc:creator>
               <cc:Agent>
                  <dc:title>Paul Kotelevets (1D_Inc)</dc:title></cc:Agent></dc:creator>
            <dc:rights>
               <cc:Agent>
                  <dc:title></dc:title></cc:Agent></dc:rights>
            <cc:license
               rdf:resource="http://creativecommons.org/licenses/by-sa/3.0/"></cc:license>
            <dc:identifier>Light theme</dc:identifier>
            <dc:description>FreeCAD Icons Pack - Light A
8 colors
black 373e48ff /grey 939dacff /orange fe8a01ff /red d40000ff
/blue 0066ffff /green 008066ff /violet d35fbcff </dc:description>
            <dc:contributor>
               <cc:Agent>
                  <dc:title>based on Blender 2.8 style by Andrzej Ambroz (jendrzych), Monoicon style</dc:title></cc:Agent></dc:contributor>
            <dc:date>2019</dc:date>
            <dc:relation>https://github.com/triplus/IconThemes</dc:relation>
            <dc:coverage></dc:coverage>
            <dc:source>https://forum.freecadweb.org/viewtopic.php?f=34&amp;=34687</dc:source>
            <dc:publisher>
               <cc:Agent>
                  <dc:title>FreeCAD</dc:title></cc:Agent></dc:publisher>
            <dc:subject>
               <rdf:Bag>
                  <rdf:li>FreeCAD</rdf:li>
                  <rdf:li>COIL</rdf:li>
                  <rdf:li>Icon</rdf:li>
                  <rdf:li>Pack</rdf:li>
                  <rdf:li>Theme</rdf:li></rdf:Bag></dc:subject></cc:Work>
         <cc:License
            rdf:about="http://creativecommons.org/licenses/by-sa/3.0/">
            <cc:permits
               rdf:resource="http://creativecommons.org/ns#Reproduction"></cc:permits>
            <cc:permits
               rdf:resource="http://creativecommons.org/ns#Distribution"></cc:permits>
            <cc:requires
               rdf:resource="http://creativecommons.org/ns#Notice"></cc:requires>
            <cc:requires
               rdf:resource="http://creativecommons.org/ns#Attribution"></cc:requires>
            <cc:permits
               rdf:resource="http://creativecommons.org/ns#DerivativeWorks"></cc:permits>
            <cc:requires
               rdf:resource="http://creativecommons.org/ns#ShareAlike"></cc:requires></cc:License></rdf:RDF></metadata>
   <g
      inkscape:groupmode="layer"
      inkscape:label="icon"
      id="icon">
      <path
         d=" m 41.375099999999975,24.000099999999975 a 17.375,17.375 0 0 1 -17.375,17.375 17.375,17.375 0 0 1 -17.375,-17.375 17.375,17.375 0 0 1 17.375,-17.375 17.375,17.375 0 0 1 17.375,17.375 z m -32.4222,8.6875 a 9.3467101,4.6927278 60 0 0 8.7383,5.7502 9.3467101,4.6927278 60 0 0 -0.6105,-10.4428 9.3467101,4.6927278 60 0 0 -8.7365,-5.7466 9.3467101,4.6927278 60 0 0 0.6087,10.4392 z m 30.0944,-0.0001 a 4.6927278,9.3467101 30 0 0 0.6106,-10.4427 4.6927278,9.3467101 30 0 0 -8.7385,5.7501 4.6927278,9.3467101 30 0 0 -0.6084,10.4393 4.6927278,9.3467101 30 0 0 8.7363,-5.7467 z M 24,6.625 a 9.3467101,4.6927278 0 0 0 -9.349,4.6925 9.3467101,4.6927278 0 0 0 9.349,4.6927 9.3467101,4.6927278 0 0 0 9.3449,-4.6927 9.3467101,4.6927278 0 0 0 -9.3449,-4.6925 z m 0.08,9.3848 c 0,-0.3319 0.028,-0.6478 0.072,-0.9453 -0.1143,-1.3999 -0.6351,-2.421 -1.4883,-2.9179 -0.4072,-0.2352 -0.8826,-0.3472 -1.4101,-0.3321 l -0.0001,0 c -1.3535,0.045 -2.9759,0.9196 -4.5312,2.4434 m 14.4297,0.074 c -2.0846,-1.8855 -4.1808,-2.544 -5.5645,-1.748 -0.7588,0.4431 -1.2562,1.3025 -1.4355,2.4804 l 0,0 c 0.023,0.2999 0.028,0.6151 0.014,0.9434 m 6.7148,12.0583 c 0.2852,0.1689 0.5463,0.3477 0.7812,0.5351 1.2704,0.6021 2.4159,0.6623 3.2735,0.1719 1.466,-0.8566 1.9023,-3.2274 1.1406,-6.1992 m -7.2773,12.4554 c 2.6738,-0.8624 4.2916,-2.3478 4.2949,-3.9434 0,-0.8791 -0.5004,-1.7399 -1.4317,-2.4844 -0.2715,-0.1294 -0.5468,-0.2828 -0.8242,-0.4589 m -18.7832,-5.4961 c -0.5896,2.7435 -0.1145,4.886 1.2617,5.6894 0.7645,0.4359 1.7594,0.4359 2.8711,0 0.2465,-0.1697 0.5153,-0.3308 0.8047,-0.4824 m 0.047,0.077 c -0.288,0.1615 -0.5726,0.2973 -0.8516,0.4062 l 0,-0.0004 c -1.1576,0.7993 -1.783,1.7617 -1.7871,2.75 0,1.7016 1.8426,3.2688 4.8047,4.0957"
         id="circle10823"
         inkscape:connector-curvature="0"
         style="color:#000000;clip-rule:nonzero;display:inline;overflow:visible;visibility:visible;opacity:1;isolation:auto;mix-blend-mode:normal;color-interpolation:sRGB;color-interpolation-filters:linearRGB;solid-color:#000000;solid-opacity:1;fill:none;fill-opacity:1;fill-rule:evenodd;stroke:#fe8a01;stroke-width:2;stroke-linecap:round;stroke-linejoin:round;stroke-miterlimit:4;stroke-dasharray:none;stroke-dashoffset:0;stroke-opacity:1;marker:none;paint-order:markers fill stroke;color-rendering:auto;image-rendering:auto;shape-rendering:auto;text-rendering:auto;enable-background:accumulate"
         inkscape:export-xdpi="78"
         inkscape:export-ydpi="78"></path></g></svg>