<svg
   viewBox="0 0 48 48"
   xmlns:rdf="http://www.w3.org/1999/02/22-rdf-syntax-ns#"
   version="1.1"
   id="svg3336"
   xmlns:xlink="http://www.w3.org/1999/xlink"
   xmlns:sodipodi="http://sodipodi.sourceforge.net/DTD/sodipodi-0.dtd"
   width="48"
   xmlns:dc="http://purl.org/dc/elements/1.1/"
   xmlns:inkscape="http://www.inkscape.org/namespaces/inkscape"
   xmlns:cc="http://creativecommons.org/ns#"
   inkscape:version="0.91 r13725"
   height="48"
   xmlns:svg="http://www.w3.org/2000/svg"
   xmlns="http://www.w3.org/2000/svg"
   sodipodi:docname="1D_FC_COIL_DB_BLUE.svg">
   <title
      id="title12183">COIL Icon Pack DB Blue v0.1</title>
   <defs
      id="defs3338">
      <pattern
         x="0"
         patternUnits="userSpaceOnUse"
         height="6"
         width="6"
         y="0"
         id="EMFhbasepattern"></pattern>
      <pattern
         x="0"
         patternUnits="userSpaceOnUse"
         height="6"
         width="6"
         y="0"
         id="EMFhbasepattern-8"></pattern>
      <pattern
         x="0"
         patternUnits="userSpaceOnUse"
         height="6"
         width="6"
         y="0"
         id="EMFhbasepattern-3"></pattern>
      <pattern
         x="0"
         patternUnits="userSpaceOnUse"
         height="6"
         width="6"
         y="0"
         id="EMFhbasepattern-6"></pattern>
      <pattern
         x="0"
         patternUnits="userSpaceOnUse"
         height="6"
         width="6"
         y="0"
         id="EMFhbasepattern-5"></pattern>
      <pattern
         x="0"
         patternUnits="userSpaceOnUse"
         height="6"
         width="6"
         y="0"
         id="EMFhbasepattern-9"></pattern>
      <pattern
         x="0"
         patternUnits="userSpaceOnUse"
         height="6"
         width="6"
         y="0"
         id="EMFhbasepattern-2"></pattern>
      <pattern
         x="0"
         patternUnits="userSpaceOnUse"
         height="6"
         width="6"
         y="0"
         id="EMFhbasepattern-7"></pattern>
      <pattern
         x="0"
         patternUnits="userSpaceOnUse"
         height="6"
         width="6"
         y="0"
         id="EMFhbasepattern-31"></pattern>
      <pattern
         x="0"
         patternUnits="userSpaceOnUse"
         height="6"
         width="6"
         y="0"
         id="EMFhbasepattern-79"></pattern>
      <pattern
         x="0"
         patternUnits="userSpaceOnUse"
         height="6"
         width="6"
         y="0"
         id="EMFhbasepattern-87"></pattern>
      <pattern
         x="0"
         patternUnits="userSpaceOnUse"
         height="6"
         width="6"
         y="0"
         id="EMFhbasepattern-94"></pattern></defs>
   <sodipodi:namedview
      showgrid="true"
      inkscape:snap-intersection-paths="true"
      id="base"
      inkscape:window-maximized="1"
      inkscape:current-layer="layer5"
      pagecolor="#6e6e6e"
      inkscape:object-paths="true"
      inkscape:cy="114.74139"
      inkscape:snap-to-guides="false"
      inkscape:pageshadow="2"
      inkscape:snap-smooth-nodes="true"
      inkscape:snap-center="true"
      inkscape:window-height="1003"
      inkscape:window-width="1920"
      inkscape:snap-bbox="true"
      inkscape:zoom="1.4142136"
      inkscape:window-x="-9"
      inkscape:snap-global="true"
      inkscape:snap-grids="false"
      inkscape:object-nodes="true"
      inkscape:snap-object-midpoints="true"
      inkscape:document-units="px"
      inkscape:cx="-167.58215"
      showguides="true"
      inkscape:window-y="-9"
      borderopacity="1.0"
      bordercolor="#666666"
      inkscape:grid-bbox="true"
      inkscape:pageopacity="1">
      <inkscape:grid
         empspacing="4"
         spacingy="6"
         opacity="0.09803922"
         empcolor="#3f3fff"
         empopacity="0.14901961"
         id="grid3344"
         color="#3f3fff"
         dotted="false"
         spacingx="6"
         type="xygrid"></inkscape:grid>
      <inkscape:grid
         empspacing="48"
         spacingy="1"
         empcolor="#0e3ca4"
         empopacity="0.19607843"
         id="grid3346"
         spacingx="1"
         type="xygrid"></inkscape:grid></sodipodi:namedview>
   <metadata
      id="metadata3341">
      <rdf:RDF>
         <cc:Work
            rdf:about="">
            <dc:format>image/svg+xml</dc:format>
            <dc:type
               rdf:resource="http://purl.org/dc/dcmitype/StillImage"></dc:type>
            <dc:title>COIL Icon Pack DB Blue v0.1</dc:title>
            <dc:creator>
               <cc:Agent>
                  <dc:title>Paul Kotelevets (1D_Inc)</dc:title></cc:Agent></dc:creator>
            <dc:rights>
               <cc:Agent>
                  <dc:title></dc:title></cc:Agent></dc:rights>
            <cc:license
               rdf:resource="http://creativecommons.org/licenses/by-sa/3.0/"></cc:license>
            <dc:identifier>Dark theme</dc:identifier>
            <dc:description>FreeCAD Icons Pack Dark Blue (background 6e6e6eff and darker to 4c4c4cff) 
5 colors
main cbd1d7ff /grey 93a5b8ff /blue 6bbafdff /green 00d7caff /violet ee9afeff</dc:description>
            <dc:contributor>
               <cc:Agent>
                  <dc:title>based on Blender 2.8 style by Andrzej Ambroz (jendrzych), Monoicon style</dc:title></cc:Agent></dc:contributor>
            <dc:date>2019</dc:date>
            <dc:relation>https://github.com/triplus/IconThemes</dc:relation>
            <dc:coverage></dc:coverage>
            <dc:source>https://forum.freecadweb.org/viewtopic.php?f=34&amp;=34687</dc:source>
            <dc:publisher>
               <cc:Agent>
                  <dc:title>FreeCAD</dc:title></cc:Agent></dc:publisher>
            <dc:subject>
               <rdf:Bag>
                  <rdf:li>FreeCAD</rdf:li>
                  <rdf:li>COIL</rdf:li>
                  <rdf:li>Icon</rdf:li>
                  <rdf:li>Pack</rdf:li>
                  <rdf:li>Theme</rdf:li></rdf:Bag></dc:subject></cc:Work>
         <cc:License
            rdf:about="http://creativecommons.org/licenses/by-sa/3.0/">
            <cc:permits
               rdf:resource="http://creativecommons.org/ns#Reproduction"></cc:permits>
            <cc:permits
               rdf:resource="http://creativecommons.org/ns#Distribution"></cc:permits>
            <cc:requires
               rdf:resource="http://creativecommons.org/ns#Notice"></cc:requires>
            <cc:requires
               rdf:resource="http://creativecommons.org/ns#Attribution"></cc:requires>
            <cc:permits
               rdf:resource="http://creativecommons.org/ns#DerivativeWorks"></cc:permits>
            <cc:requires
               rdf:resource="http://creativecommons.org/ns#ShareAlike"></cc:requires></cc:License></rdf:RDF></metadata>
   <g
      inkscape:groupmode="layer"
      inkscape:label="icon"
      id="icon">
      <path
         d=" m 16.93533000000002,5.256719999999973 a 2.3479467,2.3397992 0 0 0 -1.63211,0.68552 l -10.28764,10.25581 a 2.3479467,2.3397992 0 0 0 0,3.3089 l 5.14382,5.11876 3.31919,-3.30891 -3.48425,-3.46432 6.9685,-6.94686 3.41087,3.4003 3.31919,3.30891 0.2474,0.23774 -0.15586,0.15538 3.31924,3.3089 1.81543,-1.80985 a 2.3479467,2.3397992 0 0 0 0,-3.3089 l -1.89796,-1.89213 -0.90774,-0.90492 -2.42065,-2.40398 -5.07049,-5.05478 a 2.3479467,2.3397992 0 0 0 -1.68708,-0.68553 z m 3.53006,16.06008 -0.0188,0.0187 -3.31004,3.29978 -0.16524,0.16474 -0.17417,-0.16474 -3.31919,3.29978 1.83383,1.82815 a 2.3479467,2.3397992 0 0 0 3.31919,0 l 1.82463,-1.81903 3.31003,-3.29973 0.0188,-0.0187 -3.31919,-3.3089 z"
         style="color:#000000;font-style:normal;font-variant:normal;font-weight:normal;font-stretch:normal;font-size:medium;line-height:normal;font-family:sans-serif;text-indent:0;text-align:start;text-decoration:none;text-decoration-line:none;text-decoration-style:solid;text-decoration-color:#000000;letter-spacing:normal;word-spacing:normal;text-transform:none;direction:ltr;block-progression:tb;writing-mode:lr-tb;baseline-shift:baseline;text-anchor:start;white-space:normal;clip-rule:nonzero;display:inline;overflow:visible;visibility:visible;opacity:1;isolation:auto;mix-blend-mode:normal;color-interpolation:sRGB;color-interpolation-filters:linearRGB;solid-color:#000000;solid-opacity:1;fill:#014fa1;fill-opacity:1;fill-rule:evenodd;stroke:none;stroke-width:2.29999995;stroke-linecap:round;stroke-linejoin:round;stroke-miterlimit:4;stroke-dasharray:none;stroke-dashoffset:0;stroke-opacity:1;marker:none;paint-order:markers fill stroke;color-rendering:auto;image-rendering:auto;shape-rendering:auto;text-rendering:auto;enable-background:accumulate"
         inkscape:connector-curvature="0"
         id="path15316"
         inkscape:export-xdpi="78"
         inkscape:export-ydpi="78"></path>
      <path
         d=" m 30.533000000000015,18.885400000000004 a 2.3479467,2.3397992 0 0 0 -1.63206,0.68553 l -1.77881,1.76413 -3.31919,3.30894 -0.0188,0.0187 3.31924,3.30891 0.0188,-0.0187 0.47678,-0.47535 2.85161,-2.83356 0.10986,-0.10951 0.0643,0.0641 3.31919,-3.3089 -1.72379,-1.71845 a 2.3479467,2.3397992 0 0 0 -1.68713,-0.68553 z m 6.73011,5.71288 -3.31919,3.3089 3.59424,3.57398 -6.97765,6.9469 -6.96845,-6.9469 0.20187,-0.20124 -3.31919,-3.3089 -1.86135,1.85557 a 2.3479467,2.3397992 0 0 0 0,3.30891 l 10.28769,10.2558 a 2.3479467,2.3397992 0 0 0 3.31919,0 l 10.29684,-10.2558 a 2.3479467,2.3397992 0 0 0 0,-3.30891 l -5.25386,-5.22845 z"
         style="color:#000000;font-style:normal;font-variant:normal;font-weight:normal;font-stretch:normal;font-size:medium;line-height:normal;font-family:sans-serif;text-indent:0;text-align:start;text-decoration:none;text-decoration-line:none;text-decoration-style:solid;text-decoration-color:#000000;letter-spacing:normal;word-spacing:normal;text-transform:none;direction:ltr;block-progression:tb;writing-mode:lr-tb;baseline-shift:baseline;text-anchor:start;white-space:normal;clip-rule:nonzero;display:inline;overflow:visible;visibility:visible;opacity:1;isolation:auto;mix-blend-mode:normal;color-interpolation:sRGB;color-interpolation-filters:linearRGB;solid-color:#000000;solid-opacity:1;fill:#029db3;fill-opacity:1;fill-rule:evenodd;stroke:none;stroke-width:2.29999995;stroke-linecap:round;stroke-linejoin:round;stroke-miterlimit:4;stroke-dasharray:none;stroke-dashoffset:0;stroke-opacity:1;marker:none;paint-order:markers fill stroke;color-rendering:auto;image-rendering:auto;shape-rendering:auto;text-rendering:auto;enable-background:accumulate"
         inkscape:connector-curvature="0"
         id="path15318"
         inkscape:export-xdpi="78"
         inkscape:export-ydpi="78"></path>
      <path
         d=" m 16.916969999999992,18.821429999999964 a 2.3479467,2.3397992 0 0 0 -1.6229,0.68552 l -10.29684,10.25581 a 2.3479467,2.3397992 0 0 0 0,3.3089 l 10.30599,10.26493 a 2.3479467,2.3397992 0 0 0 3.31919,0 l 5.10715,-5.09133 -3.31919,-3.3089 -3.44753,3.43686 -6.97765,-6.95603 6.97765,-6.94686 0.17417,0.16427 3.31003,-3.29978 -1.83383,-1.8281 a 2.3479467,2.3397992 0 0 0 -1.69628,-0.68553 z m 6.8493,5.82257 -3.31003,3.29973 0.0188,0.0281 3.31919,3.30891 0.14647,0.13712 -0.21079,0.21013 3.31924,3.30895 1.86129,-1.85557 a 2.3479467,2.3397992 0 0 0 0,-3.3089 l -1.80627,-1.80073 -3.31924,-3.3089 -0.0188,-0.0187 z"
         style="color:#000000;font-style:normal;font-variant:normal;font-weight:normal;font-stretch:normal;font-size:medium;line-height:normal;font-family:sans-serif;text-indent:0;text-align:start;text-decoration:none;text-decoration-line:none;text-decoration-style:solid;text-decoration-color:#000000;letter-spacing:normal;word-spacing:normal;text-transform:none;direction:ltr;block-progression:tb;writing-mode:lr-tb;baseline-shift:baseline;text-anchor:start;white-space:normal;clip-rule:nonzero;display:inline;overflow:visible;visibility:visible;opacity:1;isolation:auto;mix-blend-mode:normal;color-interpolation:sRGB;color-interpolation-filters:linearRGB;solid-color:#000000;solid-opacity:1;fill:#9f358a;fill-opacity:1;fill-rule:evenodd;stroke:none;stroke-width:2.29999995;stroke-linecap:round;stroke-linejoin:round;stroke-miterlimit:4;stroke-dasharray:none;stroke-dashoffset:0;stroke-opacity:1;marker:none;paint-order:markers fill stroke;color-rendering:auto;image-rendering:auto;shape-rendering:auto;text-rendering:auto;enable-background:accumulate"
         inkscape:connector-curvature="0"
         id="path15320"
         inkscape:export-xdpi="78"
         inkscape:export-ydpi="78"></path>
      <path
         d=" m 30.477980000000002,5.174440000000004 a 2.3479467,2.3397992 0 0 0 -1.62291,0.68553 l -5.16217,5.13705 3.32839,3.3089 3.4934,-3.48257 6.96845,6.9469 -6.96845,6.93773 -0.0643,-0.0641 -3.32838,3.30891 1.73294,1.71845 a 2.3479467,2.3397992 0 0 0 3.31919,0 l 10.28768,-10.25581 a 2.3479467,2.3397992 0 0 0 0,-3.29978 l -10.28768,-10.2558 a 2.3479467,2.3397992 0 0 0 -1.69628,-0.68553 z m -10.10427,9.13148 -1.81548,1.80986 a 2.3479467,2.3397992 0 0 0 0,3.29977 l 5.24471,5.22845 3.31919,-3.30894 -3.58509,-3.56481 0.15586,-0.15538 -3.31919,-3.3089 z"
         style="color:#000000;font-style:normal;font-variant:normal;font-weight:normal;font-stretch:normal;font-size:medium;line-height:normal;font-family:sans-serif;text-indent:0;text-align:start;text-decoration:none;text-decoration-line:none;text-decoration-style:solid;text-decoration-color:#000000;letter-spacing:normal;word-spacing:normal;text-transform:none;direction:ltr;block-progression:tb;writing-mode:lr-tb;baseline-shift:baseline;text-anchor:start;white-space:normal;clip-rule:nonzero;display:inline;overflow:visible;visibility:visible;opacity:1;isolation:auto;mix-blend-mode:normal;color-interpolation:sRGB;color-interpolation-filters:linearRGB;solid-color:#000000;solid-opacity:1;fill:#e60048;fill-opacity:1;fill-rule:evenodd;stroke:none;stroke-width:2.29999995;stroke-linecap:round;stroke-linejoin:round;stroke-miterlimit:4;stroke-dasharray:none;stroke-dashoffset:0;stroke-opacity:1;marker:none;paint-order:markers fill stroke;color-rendering:auto;image-rendering:auto;shape-rendering:auto;text-rendering:auto;enable-background:accumulate"
         inkscape:connector-curvature="0"
         id="path15322"
         inkscape:export-xdpi="78"
         inkscape:export-ydpi="78"></path></g></svg>